<?xml version="1.0" encoding="UTF-8"?>
<!DOCTYPE svg PUBLIC "-//W3C//DTD SVG 1.1//EN" "http://www.w3.org/Graphics/SVG/1.1/DTD/svg11.dtd">
<!-- Creator: CorelDRAW -->
<svg xmlns="http://www.w3.org/2000/svg" xml:space="preserve" width="16.7975mm" height="16.7973mm" version="1.1" style="shape-rendering:geometricPrecision; text-rendering:geometricPrecision; image-rendering:optimizeQuality; fill-rule:evenodd; clip-rule:evenodd"
viewBox="0 0 25.08 25.08"
 xmlns:xlink="http://www.w3.org/1999/xlink">
 <defs>
  <style type="text/css">
   <![CDATA[
    .fil0 {fill:#666666;fill-rule:nonzero}
   ]]>
  </style>
 </defs>
 <g id="Layer_x0020_1">
  <metadata id="CorelCorpID_0Corel-Layer"/>
  <path class="fil0" d="M21.11 14.95c-0.55,-0.57 -1.21,-0.87 -1.91,-0.87 -0.69,0 -1.36,0.3 -1.93,0.87l-1.78 1.77c-0.15,-0.08 -0.29,-0.15 -0.43,-0.22 -0.2,-0.1 -0.4,-0.2 -0.56,-0.3 -1.67,-1.06 -3.19,-2.43 -4.64,-4.21 -0.71,-0.89 -1.18,-1.64 -1.52,-2.39 0.46,-0.42 0.89,-0.86 1.31,-1.28 0.16,-0.16 0.32,-0.32 0.47,-0.48 1.19,-1.18 1.19,-2.71 0,-3.89l-1.54 -1.53c-0.18,-0.17 -0.36,-0.35 -0.53,-0.53 -0.34,-0.35 -0.69,-0.71 -1.06,-1.05 -0.55,-0.54 -1.2,-0.83 -1.89,-0.83 -0.69,0 -1.35,0.29 -1.92,0.83 -0.01,0.01 -0.01,0.01 -0.01,0.01l-1.92 1.93c-0.72,0.72 -1.13,1.6 -1.22,2.61 -0.14,1.64 0.35,3.17 0.72,4.17 0.91,2.46 2.28,4.73 4.32,7.17 2.47,2.94 5.45,5.26 8.84,6.89 1.3,0.61 3.03,1.34 4.97,1.46 0.12,0.01 0.24,0.01 0.36,0.01 1.3,0 2.4,-0.47 3.26,-1.39 0.01,-0.01 0.02,-0.02 0.02,-0.03 0.29,-0.35 0.63,-0.67 0.99,-1.02 0.24,-0.23 0.49,-0.47 0.73,-0.72 0.56,-0.58 0.85,-1.25 0.85,-1.94 0,-0.7 -0.3,-1.36 -0.87,-1.93l-3.1 -3.1zm2.02 5.92c-0.01,0 -0.01,0.01 0,0 -0.22,0.24 -0.45,0.45 -0.69,0.68 -0.37,0.35 -0.74,0.71 -1.09,1.12 -0.57,0.61 -1.24,0.89 -2.12,0.89 -0.08,0 -0.18,0 -0.26,-0.01 -1.68,-0.11 -3.23,-0.76 -4.4,-1.31 -3.19,-1.54 -6,-3.72 -8.33,-6.49 -1.92,-2.31 -3.21,-4.44 -4.06,-6.74 -0.52,-1.4 -0.72,-2.49 -0.63,-3.52 0.06,-0.66 0.31,-1.2 0.78,-1.67l1.92 -1.92c0.28,-0.26 0.57,-0.4 0.86,-0.4 0.36,0 0.64,0.21 0.82,0.39 0.01,0.01 0.01,0.01 0.02,0.02 0.34,0.32 0.67,0.65 1.02,1.01 0.18,0.18 0.36,0.36 0.54,0.54l1.54 1.53c0.6,0.6 0.6,1.15 0,1.74 -0.16,0.16 -0.32,0.33 -0.49,0.48 -0.47,0.48 -0.93,0.93 -1.42,1.37 -0.01,0.01 -0.02,0.02 -0.03,0.03 -0.49,0.48 -0.4,0.95 -0.29,1.27 0.01,0.02 0.01,0.03 0.02,0.05 0.4,0.97 0.96,1.88 1.82,2.96l0.01 0.01c1.56,1.91 3.2,3.4 5.01,4.54 0.23,0.15 0.47,0.26 0.69,0.38 0.2,0.1 0.4,0.2 0.56,0.3 0.02,0.01 0.05,0.03 0.07,0.04 0.19,0.1 0.37,0.14 0.56,0.14 0.47,0 0.76,-0.29 0.86,-0.39l1.93 -1.92c0.19,-0.19 0.5,-0.42 0.85,-0.42 0.35,0 0.64,0.22 0.81,0.41 0.01,0.01 0.01,0.01 0.01,0.01l3.11 3.1c0.58,0.57 0.58,1.16 0.01,1.76z"/>
 </g>
</svg>
