<?xml version="1.0" encoding="UTF-8"?>
<!DOCTYPE svg PUBLIC "-//W3C//DTD SVG 1.1//EN" "http://www.w3.org/Graphics/SVG/1.1/DTD/svg11.dtd">
<!-- Creator: CorelDRAW -->
<svg xmlns="http://www.w3.org/2000/svg" xml:space="preserve" width="7.9364mm" height="15.2651mm" version="1.1" style="shape-rendering:geometricPrecision; text-rendering:geometricPrecision; image-rendering:optimizeQuality; fill-rule:evenodd; clip-rule:evenodd"
viewBox="0 0 5.47 10.52"
 xmlns:xlink="http://www.w3.org/1999/xlink">
 <defs>
  <style type="text/css">
   <![CDATA[
    .fil0 {fill:#E6E6E6}
   ]]>
  </style>
 </defs>
 <g id="Layer_x0020_1">
  <metadata id="CorelCorpID_0Corel-Layer"/>
  <path class="fil0" d="M1.6 2.56l0 1.28 -1.6 0 0 1.89 1.6 0 0 4.79 1.95 0 0 -4.79 1.61 0c0.01,-0.06 0.03,-0.16 0.03,-0.22 0.01,-0.08 0.01,-0.17 0.02,-0.25 0.03,-0.16 0.04,-0.3 0.07,-0.46l0.06 -0.47c0,-0.03 0.02,-0.09 0.02,-0.12l0.04 -0.37 -1.86 0 0 -0.95c0,-0.36 0.02,-0.64 0.16,-0.87l0.13 -0.13c0.06,-0.04 0.09,-0.06 0.18,-0.08 0.15,-0.04 0.27,-0.07 0.45,-0.07l1 0 0 -1.65c0,-0.05 -0.17,-0.05 -0.26,-0.06 -0.14,-0.01 -0.4,-0.03 -0.69,-0.04l-0.64 0c-0.21,0.01 -0.39,0.02 -0.5,0.05 -0.25,0.07 -0.34,0.08 -0.57,0.2 -0.16,0.09 -0.33,0.18 -0.47,0.31l-0.29 0.31c-0.17,0.23 -0.27,0.45 -0.35,0.73 -0.09,0.31 -0.12,0.65 -0.12,0.97z"/>
 </g>
</svg>
