<?xml version="1.0" encoding="UTF-8"?>
<!DOCTYPE svg PUBLIC "-//W3C//DTD SVG 1.1//EN" "http://www.w3.org/Graphics/SVG/1.1/DTD/svg11.dtd">
<!-- Creator: CorelDRAW -->
<svg xmlns="http://www.w3.org/2000/svg" xml:space="preserve" width="4.0743mm" height="5.3085mm" version="1.1" style="shape-rendering:geometricPrecision; text-rendering:geometricPrecision; image-rendering:optimizeQuality; fill-rule:evenodd; clip-rule:evenodd"
viewBox="0 0 0.52 0.68"
 xmlns:xlink="http://www.w3.org/1999/xlink">
 <defs>
  <style type="text/css">
   <![CDATA[
    .fil0 {fill:white;fill-rule:nonzero}
   ]]>
  </style>
 </defs>
 <g id="Layer_x0020_1">
  <metadata id="CorelCorpID_0Corel-Layer"/>
  <g id="_105553353087104">
   <path class="fil0" d="M0.26 0c-0.14,0 -0.26,0.12 -0.26,0.26 0,0.06 0.02,0.11 0.06,0.16l0.2 0.26 0.2 -0.26c0.04,-0.05 0.06,-0.1 0.06,-0.16 0,-0.14 -0.12,-0.26 -0.26,-0.26zm0.17 0.39l-0.17 0.21 -0.17 -0.21c-0.03,-0.04 -0.05,-0.09 -0.05,-0.13 0,-0.12 0.1,-0.22 0.22,-0.22 0.12,0 0.22,0.1 0.22,0.22 0,0.05 -0.02,0.1 -0.05,0.13z"/>
   <path class="fil0" d="M0.26 0.15c-0.06,0 -0.11,0.05 -0.11,0.11 0,0.06 0.05,0.11 0.11,0.11 0.06,0 0.11,-0.05 0.11,-0.11 0,-0.06 -0.05,-0.11 -0.11,-0.11zm0 0.17c-0.04,0 -0.06,-0.03 -0.06,-0.06 0,-0.04 0.03,-0.06 0.06,-0.06 0.04,0 0.06,0.03 0.06,0.06 0,0.04 -0.03,0.06 -0.06,0.06z"/>
  </g>
 </g>
</svg>
