<?xml version="1.0" encoding="UTF-8"?>
<!DOCTYPE svg PUBLIC "-//W3C//DTD SVG 1.1//EN" "http://www.w3.org/Graphics/SVG/1.1/DTD/svg11.dtd">
<!-- Creator: CorelDRAW -->
<svg xmlns="http://www.w3.org/2000/svg" xml:space="preserve" width="12.3709mm" height="16.1185mm" version="1.1" style="shape-rendering:geometricPrecision; text-rendering:geometricPrecision; image-rendering:optimizeQuality; fill-rule:evenodd; clip-rule:evenodd"
viewBox="0 0 13.55 17.65"
 xmlns:xlink="http://www.w3.org/1999/xlink">
 <defs>
  <style type="text/css">
   <![CDATA[
    .fil0 {fill:#E6E6E6;fill-rule:nonzero}
   ]]>
  </style>
 </defs>
 <g id="Layer_x0020_1">
  <metadata id="CorelCorpID_0Corel-Layer"/>
  <path class="fil0" d="M6.77 0c-3.74,0 -6.77,3.04 -6.77,6.77 0,1.54 0.5,2.99 1.46,4.2l5.31 6.68 5.32 -6.68c0.95,-1.21 1.46,-2.66 1.46,-4.2 0,-3.74 -3.04,-6.77 -6.77,-6.77zm4.44 10.27l-4.44 5.58 -4.44 -5.58c-0.8,-1.01 -1.22,-2.22 -1.22,-3.5 0,-3.12 2.54,-5.66 5.66,-5.66 3.12,0 5.66,2.54 5.66,5.66 0,1.28 -0.42,2.49 -1.22,3.5z"/>
  <path class="fil0" d="M6.77 3.89c-1.54,0 -2.8,1.25 -2.8,2.8 0,1.54 1.26,2.8 2.8,2.8 1.54,0 2.8,-1.25 2.8,-2.8 0,-1.54 -1.25,-2.8 -2.8,-2.8zm0 4.48c-0.93,0 -1.68,-0.75 -1.68,-1.68 0,-0.93 0.75,-1.68 1.68,-1.68 0.93,0 1.68,0.75 1.68,1.68 0,0.93 -0.75,1.68 -1.68,1.68z"/>
 </g>
</svg>
